<svg width="35" height="35" viewBox="0 0 35 35" fill="none" xmlns="http://www.w3.org/2000/svg">
<path d="M29.1667 5.83329V23.3333H11.6667V5.83329H29.1667ZM29.1667 2.91663H11.6667C10.0626 2.91663 8.75008 4.22913 8.75008 5.83329V23.3333C8.75008 24.9375 10.0626 26.25 11.6667 26.25H29.1667C30.7709 26.25 32.0834 24.9375 32.0834 23.3333V5.83329C32.0834 4.22913 30.7709 2.91663 29.1667 2.91663ZM18.1855 20.4166L13.1251 15.3125L15.1667 13.2562L18.1855 16.2895L25.6667 8.74996L27.7084 10.8062L18.1855 20.4166ZM5.83341 8.74996H2.91675V29.1666C2.91675 30.7708 4.22925 32.0833 5.83341 32.0833H26.2501V29.1666H5.83341V8.74996Z" fill="#4F8FF0"/>
</svg>
