<svg width="55" height="55" viewBox="0 0 55 55" fill="none" xmlns="http://www.w3.org/2000/svg">
<rect width="55" height="55" fill="#2C2C2C"/>
<path d="M27.9998 20.6665C28.8839 20.6665 29.7317 21.0177 30.3569 21.6428C30.982 22.2679 31.3332 23.1158 31.3332 23.9998C31.3332 24.4376 31.247 24.871 31.0794 25.2754C30.9119 25.6799 30.6664 26.0473 30.3569 26.3569C30.0473 26.6664 29.6799 26.9119 29.2754 27.0794C28.871 27.247 28.4376 27.3332 27.9998 27.3332C27.1158 27.3332 26.2679 26.982 25.6428 26.3569C25.0177 25.7317 24.6665 24.8839 24.6665 23.9998C24.6665 23.1158 25.0177 22.2679 25.6428 21.6428C26.2679 21.0177 27.1158 20.6665 27.9998 20.6665ZM27.9998 14.6665C30.4752 14.6665 32.8492 15.6498 34.5995 17.4002C36.3498 19.1505 37.3332 21.5245 37.3332 23.9998C37.3332 30.9998 27.9998 41.3332 27.9998 41.3332C27.9998 41.3332 18.6665 30.9998 18.6665 23.9998C18.6665 21.5245 19.6498 19.1505 21.4002 17.4002C23.1505 15.6498 25.5245 14.6665 27.9998 14.6665ZM27.9998 17.3332C26.2317 17.3332 24.536 18.0355 23.2858 19.2858C22.0355 20.536 21.3332 22.2317 21.3332 23.9998C21.3332 25.3332 21.3332 27.9998 27.9998 36.9465C34.6665 27.9998 34.6665 25.3332 34.6665 23.9998C34.6665 22.2317 33.9641 20.536 32.7139 19.2858C31.4636 18.0355 29.7679 17.3332 27.9998 17.3332Z" fill="#F8F5F4"/>
</svg>
