<svg width="55" height="55" viewBox="0 0 55 55" fill="none" xmlns="http://www.w3.org/2000/svg">
<rect width="55" height="55" fill="#2C2C2C"/>
<path d="M17.3332 38.1668C16.5998 38.1668 15.9718 37.9055 15.4492 37.3828C14.9265 36.8602 14.6656 36.2326 14.6665 35.5002V19.5002C14.6665 18.7668 14.9278 18.1388 15.4505 17.6162C15.9732 17.0935 16.6007 16.8326 17.3332 16.8335H38.6665C39.3998 16.8335 40.0278 17.0948 40.5505 17.6175C41.0732 18.1402 41.3341 18.7677 41.3332 19.5002V35.5002C41.3332 36.2335 41.0718 36.8615 40.5492 37.3842C40.0265 37.9068 39.399 38.1677 38.6665 38.1668H17.3332ZM27.9998 28.8335L17.3332 22.1668V35.5002H38.6665V22.1668L27.9998 28.8335ZM27.9998 26.1668L38.6665 19.5002H17.3332L27.9998 26.1668ZM17.3332 22.1668V19.5002V35.5002V22.1668Z" fill="#F8F5F4"/>
</svg>
